<svg width="22" height="23" viewBox="0 0 22 23" fill="none" xmlns="http://www.w3.org/2000/svg">
<path d="M7.35826 11.1711C7.35826 9.16054 8.98864 7.53026 11.0004 7.53026C13.0121 7.53026 14.6434 9.16054 14.6434 11.1711C14.6434 13.1816 13.0121 14.8119 11.0004 14.8119C8.98864 14.8119 7.35826 13.1816 7.35826 11.1711ZM5.38892 11.1711C5.38892 14.2684 7.90117 16.7792 11.0004 16.7792C14.0996 16.7792 16.6118 14.2684 16.6118 11.1711C16.6118 8.07372 14.0996 5.56298 11.0004 5.56298C7.90117 5.56298 5.38892 8.07372 5.38892 11.1711ZM15.5226 5.34062C15.5225 5.59983 15.5993 5.85325 15.7433 6.06883C15.8873 6.28441 16.0921 6.45248 16.3317 6.55177C16.5712 6.65106 16.8349 6.67712 17.0893 6.62665C17.3437 6.57618 17.5774 6.45145 17.7609 6.26824C17.9444 6.08502 18.0694 5.85155 18.1201 5.59734C18.1708 5.34313 18.1449 5.07961 18.0457 4.84009C17.9466 4.60057 17.7786 4.39582 17.563 4.25172C17.3474 4.10763 17.0939 4.03066 16.8345 4.03056H16.834C16.4863 4.03072 16.1529 4.16878 15.9071 4.41441C15.6612 4.66005 15.5229 4.99317 15.5226 5.34062ZM6.58542 20.061C5.51997 20.0125 4.94087 19.8351 4.55603 19.6853C4.04581 19.4867 3.68178 19.2503 3.29903 18.8683C2.91629 18.4863 2.67936 18.1229 2.48161 17.613C2.33159 17.2285 2.15411 16.6496 2.10568 15.5848C2.0527 14.4336 2.04212 14.0877 2.04212 11.1712C2.04212 8.25458 2.05358 7.90972 2.10568 6.75754C2.1542 5.69273 2.33299 5.11494 2.48161 4.72936C2.68024 4.21945 2.91681 3.85564 3.29903 3.47312C3.68125 3.0906 4.04494 2.85382 4.55603 2.65619C4.9407 2.50626 5.51997 2.32889 6.58542 2.28048C7.73733 2.22754 8.08336 2.21697 11.0004 2.21697C13.9174 2.21697 14.2638 2.22841 15.4166 2.28048C16.4821 2.32898 17.0602 2.50765 17.446 2.65619C17.9563 2.85382 18.3203 3.09113 18.703 3.47312C19.0858 3.85511 19.3218 4.21945 19.5205 4.72936C19.6705 5.1138 19.848 5.69273 19.8964 6.75754C19.9494 7.90972 19.9599 8.25458 19.9599 11.1712C19.9599 14.0877 19.9494 14.4326 19.8964 15.5848C19.8479 16.6496 19.6695 17.2283 19.5205 17.613C19.3218 18.1229 19.0853 18.4867 18.703 18.8683C18.3208 19.25 17.9563 19.4867 17.446 19.6853C17.0614 19.8352 16.4821 20.0126 15.4166 20.061C14.2647 20.1139 13.9187 20.1245 11.0004 20.1245C8.08205 20.1245 7.73698 20.1139 6.58542 20.061ZM6.49494 0.315653C5.33157 0.3686 4.53662 0.552956 3.84238 0.822937C3.12339 1.10174 2.51474 1.47578 1.90653 2.08267C1.29831 2.68956 0.925008 3.29881 0.646035 4.01736C0.375892 4.71162 0.191426 5.50567 0.138446 6.66833C0.0845925 7.83283 0.0722656 8.20512 0.0722656 11.1711C0.0722656 14.137 0.0845925 14.5093 0.138446 15.6738C0.191426 16.8366 0.375892 17.6305 0.646035 18.3248C0.925008 19.0429 1.2984 19.6528 1.90653 20.2595C2.51465 20.8661 3.12339 21.2396 3.84238 21.5192C4.53793 21.7892 5.33157 21.9735 6.49494 22.0265C7.66075 22.0794 8.03265 22.0926 11.0004 22.0926C13.9681 22.0926 14.3406 22.0803 15.5058 22.0265C16.6693 21.9735 17.4637 21.7892 18.1584 21.5192C18.8769 21.2396 19.486 20.8664 20.0942 20.2595C20.7024 19.6526 21.075 19.0429 21.3547 18.3248C21.6249 17.6305 21.8102 16.8365 21.8623 15.6738C21.9153 14.5084 21.9276 14.137 21.9276 11.1711C21.9276 8.20512 21.9153 7.83283 21.8623 6.66833C21.8093 5.50558 21.6249 4.71119 21.3547 4.01736C21.075 3.29925 20.7015 2.69052 20.0942 2.08267C19.487 1.47482 18.8769 1.10174 18.1593 0.822937C17.4637 0.552956 16.6692 0.367727 15.5067 0.315653C14.3415 0.262705 13.969 0.249512 11.0013 0.249512C8.03353 0.249512 7.66075 0.261831 6.49494 0.315653Z" fill="white"/>
<path d="M7.35826 11.1711C7.35826 9.16054 8.98864 7.53026 11.0004 7.53026C13.0121 7.53026 14.6434 9.16054 14.6434 11.1711C14.6434 13.1816 13.0121 14.8119 11.0004 14.8119C8.98864 14.8119 7.35826 13.1816 7.35826 11.1711ZM5.38892 11.1711C5.38892 14.2684 7.90117 16.7792 11.0004 16.7792C14.0996 16.7792 16.6118 14.2684 16.6118 11.1711C16.6118 8.07372 14.0996 5.56298 11.0004 5.56298C7.90117 5.56298 5.38892 8.07372 5.38892 11.1711ZM15.5226 5.34062C15.5225 5.59983 15.5993 5.85325 15.7433 6.06883C15.8873 6.28441 16.0921 6.45248 16.3317 6.55177C16.5712 6.65106 16.8349 6.67712 17.0893 6.62665C17.3437 6.57618 17.5774 6.45145 17.7609 6.26824C17.9444 6.08502 18.0694 5.85155 18.1201 5.59734C18.1708 5.34313 18.1449 5.07961 18.0457 4.84009C17.9466 4.60057 17.7786 4.39582 17.563 4.25172C17.3474 4.10763 17.0939 4.03066 16.8345 4.03056H16.834C16.4863 4.03072 16.1529 4.16878 15.9071 4.41441C15.6612 4.66005 15.5229 4.99317 15.5226 5.34062ZM6.58542 20.061C5.51997 20.0125 4.94087 19.8351 4.55603 19.6853C4.04581 19.4867 3.68178 19.2503 3.29903 18.8683C2.91629 18.4863 2.67936 18.1229 2.48161 17.613C2.33159 17.2285 2.15411 16.6496 2.10568 15.5848C2.0527 14.4336 2.04212 14.0877 2.04212 11.1712C2.04212 8.25458 2.05358 7.90972 2.10568 6.75754C2.1542 5.69273 2.33299 5.11494 2.48161 4.72936C2.68024 4.21945 2.91681 3.85564 3.29903 3.47312C3.68125 3.0906 4.04494 2.85382 4.55603 2.65619C4.9407 2.50626 5.51997 2.32889 6.58542 2.28048C7.73733 2.22754 8.08336 2.21697 11.0004 2.21697C13.9174 2.21697 14.2638 2.22841 15.4166 2.28048C16.4821 2.32898 17.0602 2.50765 17.446 2.65619C17.9563 2.85382 18.3203 3.09113 18.703 3.47312C19.0858 3.85511 19.3218 4.21945 19.5205 4.72936C19.6705 5.1138 19.848 5.69273 19.8964 6.75754C19.9494 7.90972 19.9599 8.25458 19.9599 11.1712C19.9599 14.0877 19.9494 14.4326 19.8964 15.5848C19.8479 16.6496 19.6695 17.2283 19.5205 17.613C19.3218 18.1229 19.0853 18.4867 18.703 18.8683C18.3208 19.25 17.9563 19.4867 17.446 19.6853C17.0614 19.8352 16.4821 20.0126 15.4166 20.061C14.2647 20.1139 13.9187 20.1245 11.0004 20.1245C8.08205 20.1245 7.73698 20.1139 6.58542 20.061ZM6.49494 0.315653C5.33157 0.3686 4.53662 0.552956 3.84238 0.822937C3.12339 1.10174 2.51474 1.47578 1.90653 2.08267C1.29831 2.68956 0.925008 3.29881 0.646035 4.01736C0.375892 4.71162 0.191426 5.50567 0.138446 6.66833C0.0845925 7.83283 0.0722656 8.20512 0.0722656 11.1711C0.0722656 14.137 0.0845925 14.5093 0.138446 15.6738C0.191426 16.8366 0.375892 17.6305 0.646035 18.3248C0.925008 19.0429 1.2984 19.6528 1.90653 20.2595C2.51465 20.8661 3.12339 21.2396 3.84238 21.5192C4.53793 21.7892 5.33157 21.9735 6.49494 22.0265C7.66075 22.0794 8.03265 22.0926 11.0004 22.0926C13.9681 22.0926 14.3406 22.0803 15.5058 22.0265C16.6693 21.9735 17.4637 21.7892 18.1584 21.5192C18.8769 21.2396 19.486 20.8664 20.0942 20.2595C20.7024 19.6526 21.075 19.0429 21.3547 18.3248C21.6249 17.6305 21.8102 16.8365 21.8623 15.6738C21.9153 14.5084 21.9276 14.137 21.9276 11.1711C21.9276 8.20512 21.9153 7.83283 21.8623 6.66833C21.8093 5.50558 21.6249 4.71119 21.3547 4.01736C21.075 3.29925 20.7015 2.69052 20.0942 2.08267C19.487 1.47482 18.8769 1.10174 18.1593 0.822937C17.4637 0.552956 16.6692 0.367727 15.5067 0.315653C14.3415 0.262705 13.969 0.249512 11.0013 0.249512C8.03353 0.249512 7.66075 0.261831 6.49494 0.315653Z" fill="white"/>
</svg>
